<svg viewBox="0 -3 46 16" fill="none" xmlns="http://www.w3.org/2000/svg">
<path d="M42.6509 9.13636C42.0202 9.13636 41.4762 8.99716 41.0188 8.71875C40.5643 8.4375 40.2134 8.04545 39.9663 7.54261C39.7219 7.03693 39.5998 6.44886 39.5998 5.77841C39.5998 5.10795 39.7219 4.51705 39.9663 4.00568C40.2134 3.49148 40.5572 3.09091 40.9975 2.80398C41.4407 2.5142 41.9577 2.36932 42.5486 2.36932C42.8896 2.36932 43.2262 2.42614 43.5586 2.53977C43.891 2.65341 44.1935 2.83807 44.4663 3.09375C44.739 3.34659 44.9563 3.68182 45.1183 4.09943C45.2802 4.51705 45.3611 5.03125 45.3611 5.64205V6.06818H40.3157V5.19886H44.3384C44.3384 4.82955 44.2646 4.5 44.1168 4.21023C43.9719 3.92045 43.7646 3.69176 43.4947 3.52415C43.2276 3.35653 42.9123 3.27273 42.5486 3.27273C42.1481 3.27273 41.8015 3.37216 41.5089 3.57102C41.2191 3.76705 40.9961 4.02273 40.8398 4.33807C40.6836 4.65341 40.6055 4.99148 40.6055 5.35227V5.93182C40.6055 6.42614 40.6907 6.84517 40.8611 7.18892C41.0344 7.52983 41.2745 7.78977 41.5813 7.96875C41.8881 8.14489 42.2447 8.23295 42.6509 8.23295C42.9151 8.23295 43.1538 8.19602 43.3668 8.12216C43.5827 8.04545 43.7688 7.93182 43.9251 7.78125C44.0813 7.62784 44.2021 7.4375 44.2873 7.21023L45.2589 7.48295C45.1566 7.8125 44.9847 8.10227 44.7433 8.35227C44.5018 8.59943 44.2035 8.79261 43.8484 8.93182C43.4933 9.06818 43.0941 9.13636 42.6509 9.13636Z" fill="black"/>
<path d="M29.3672 0.272727H30.6286L33.5945 7.51705H33.6967L36.6626 0.272727H37.924V9H36.9354V2.36932H36.8501L34.1229 9H33.1683L30.4411 2.36932H30.3558V9H29.3672V0.272727Z" fill="black"/>
<path d="M24.9908 9.13636C24.3601 9.13636 23.8161 8.99716 23.3587 8.71875C22.9041 8.4375 22.5533 8.04545 22.3061 7.54261C22.0618 7.03693 21.9396 6.44886 21.9396 5.77841C21.9396 5.10795 22.0618 4.51705 22.3061 4.00568C22.5533 3.49148 22.897 3.09091 23.3374 2.80398C23.7805 2.5142 24.2976 2.36932 24.8885 2.36932C25.2294 2.36932 25.5661 2.42614 25.8984 2.53977C26.2308 2.65341 26.5334 2.83807 26.8061 3.09375C27.0788 3.34659 27.2962 3.68182 27.4581 4.09943C27.62 4.51705 27.701 5.03125 27.701 5.64205V6.06818H22.6555V5.19886H26.6783C26.6783 4.82955 26.6044 4.5 26.4567 4.21023C26.3118 3.92045 26.1044 3.69176 25.8345 3.52415C25.5675 3.35653 25.2521 3.27273 24.8885 3.27273C24.4879 3.27273 24.1413 3.37216 23.8487 3.57102C23.5589 3.76705 23.3359 4.02273 23.1797 4.33807C23.0234 4.65341 22.9453 4.99148 22.9453 5.35227V5.93182C22.9453 6.42614 23.0305 6.84517 23.201 7.18892C23.3743 7.52983 23.6143 7.78977 23.9212 7.96875C24.228 8.14489 24.5845 8.23295 24.9908 8.23295C25.255 8.23295 25.4936 8.19602 25.7067 8.12216C25.9226 8.04545 26.1087 7.93182 26.2649 7.78125C26.4212 7.62784 26.5419 7.4375 26.6271 7.21023L27.5987 7.48295C27.4964 7.8125 27.3246 8.10227 27.0831 8.35227C26.8416 8.59943 26.5433 8.79261 26.1882 8.93182C25.8331 9.06818 25.4339 9.13636 24.9908 9.13636Z" fill="black"/>
<path d="M21.1534 2.45455L18.733 9H17.7102L15.2898 2.45455H16.3807L18.1875 7.67045H18.2557L20.0625 2.45455H21.1534Z" fill="black"/>
<path d="M12.9535 9V2.45455H13.9592V9H12.9535ZM13.4648 1.36364C13.2688 1.36364 13.0998 1.29688 12.9577 1.16335C12.8185 1.02983 12.7489 0.869318 12.7489 0.681818C12.7489 0.494318 12.8185 0.333807 12.9577 0.200284C13.0998 0.0667613 13.2688 0 13.4648 0C13.6609 0 13.8285 0.0667613 13.9677 0.200284C14.1097 0.333807 14.1808 0.494318 14.1808 0.681818C14.1808 0.869318 14.1097 1.02983 13.9677 1.16335C13.8285 1.29688 13.6609 1.36364 13.4648 1.36364Z" fill="black"/>
<path d="M8.48864 9V2.45455H9.46023V3.44318H9.52841C9.64773 3.11932 9.86364 2.85653 10.1761 2.65483C10.4886 2.45312 10.8409 2.35227 11.233 2.35227C11.3068 2.35227 11.3991 2.35369 11.5099 2.35653C11.6207 2.35938 11.7045 2.36364 11.7614 2.36932V3.39205C11.7273 3.38352 11.6491 3.37074 11.527 3.35369C11.4077 3.33381 11.2813 3.32386 11.1477 3.32386C10.8295 3.32386 10.5455 3.39062 10.2955 3.52415C10.0483 3.65483 9.85227 3.83665 9.70739 4.0696C9.56534 4.29972 9.49432 4.5625 9.49432 4.85795V9H8.48864Z" fill="black"/>
<path d="M2.69318 9H0V0.272727H2.8125C3.65909 0.272727 4.38352 0.447443 4.9858 0.796875C5.58807 1.14347 6.04972 1.64205 6.37074 2.29261C6.69176 2.94034 6.85227 3.71591 6.85227 4.61932C6.85227 5.52841 6.69034 6.31108 6.36648 6.96733C6.04261 7.62074 5.57102 8.12358 4.9517 8.47585C4.33239 8.82528 3.57955 9 2.69318 9ZM1.05682 8.0625H2.625C3.34659 8.0625 3.9446 7.9233 4.41903 7.64489C4.89347 7.36648 5.24716 6.97017 5.48011 6.45597C5.71307 5.94176 5.82955 5.32955 5.82955 4.61932C5.82955 3.91477 5.71449 3.30824 5.48438 2.79972C5.25426 2.28835 4.91051 1.89631 4.45312 1.62358C3.99574 1.34801 3.42614 1.21023 2.74432 1.21023H1.05682V8.0625Z" fill="black"/>
</svg>
